<svg width="32" height="32" fill="none" xmlns="http://www.w3.org/2000/svg"><rect width="32" height="32" rx="16" fill="#fff"/><path d="m10.433 18.086-.696 2.599-2.545.054a9.955 9.955 0 0 1-1.191-4.74A9.95 9.95 0 0 1 7.119 11.4l2.266.415.992 2.252A5.943 5.943 0 0 0 10.056 16c0 .734.133 1.437.377 2.086z" fill="#FBBB00"/><path d="M25.825 14.132a9.997 9.997 0 0 1-3.564 9.666l-2.854-.146-.404-2.52a5.96 5.96 0 0 0 2.564-3.044H16.22v-3.956h9.605z" fill="#518EF8"/><path d="M22.26 23.798A9.957 9.957 0 0 1 16 26a9.997 9.997 0 0 1-8.808-5.26l3.24-2.654a5.947 5.947 0 0 0 8.57 3.045l3.258 2.667z" fill="#28B446"/><path d="m22.384 8.302-3.24 2.652a5.948 5.948 0 0 0-8.767 3.114L7.12 11.401a9.998 9.998 0 0 1 8.88-5.4c2.427 0 4.652.863 6.384 2.301z" fill="#F14336"/></svg>