<svg width="32" height="32" fill="none" xmlns="http://www.w3.org/2000/svg"><rect width="32" height="32" rx="16" fill="#1DA1F2"/><path d="M23.841 12.542v.5c0 5.175-3.95 11.15-11.15 11.15-2.225 0-4.275-.65-6.025-1.75.3.025.625.05.925.05a7.933 7.933 0 0 0 4.875-1.675 3.88 3.88 0 0 1-3.65-2.725c.25.05.475.075.75.075.35 0 .7-.05 1.025-.15a3.891 3.891 0 0 1-3.15-3.825v-.05c.526.3 1.125.475 1.776.5-1.05-.7-1.75-1.9-1.75-3.275 0-.725.2-1.4.525-1.975a11.151 11.151 0 0 0 8.075 4.1 3.55 3.55 0 0 1-.1-.9 3.916 3.916 0 0 1 3.925-3.925c1.125 0 2.15.475 2.85 1.225.9-.175 1.724-.5 2.5-.95a4.04 4.04 0 0 1-1.726 2.175c.8-.1 1.55-.3 2.25-.625-.5.8-1.15 1.5-1.924 2.05z" fill="#fff"/></svg>